# Blender v2.79 (sub 0) OBJ File: ''
# www.blender.org
mtllib Cube.mtl
o Cube_Cube.001
v -1.000000 -1.000000 1.000000
v -1.000000 1.000000 1.000000
v -1.000000 -1.000000 -1.000000
v -1.000000 1.000000 -1.000000
v 1.000000 -1.000000 1.000000
v 1.000000 1.000000 1.000000
v 1.000000 -1.000000 -1.000000
v 1.000000 1.000000 -1.000000
vt 0.250018 0.999990
vt 0.000160 0.500273
vt 0.250018 0.500273
vt 0.500048 1.000000
vt 0.250073 0.500051
vt 0.500048 0.500051
vt 0.749886 0.999726
vt 0.500027 0.500009
vt 0.749886 0.500009
vt 0.999994 1.000000
vt 0.750019 0.500051
vt 0.999994 0.500051
vt 0.250004 0.000051
vt 0.499979 0.500001
vt 0.250004 0.500001
vt 0.000026 0.000048
vt 0.250001 0.499998
vt 0.000026 0.499998
vt 0.000160 0.999990
vt 0.250073 1.000000
vt 0.500027 0.999726
vt 0.750019 1.000000
vt 0.499979 0.000051
vt 0.250001 0.000048
vn -1.0000 0.0000 0.0000
vn 0.0000 0.0000 -1.0000
vn 1.0000 0.0000 0.0000
vn 0.0000 0.0000 1.0000
vn 0.0000 -1.0000 0.0000
vn 0.0000 1.0000 0.0000
usemtl None
s off
f 2/1/1 3/2/1 1/3/1
f 4/4/2 7/5/2 3/6/2
f 8/7/3 5/8/3 7/9/3
f 6/10/4 1/11/4 5/12/4
f 7/13/5 1/14/5 3/15/5
f 4/16/6 6/17/6 8/18/6
f 2/1/1 4/19/1 3/2/1
f 4/4/2 8/20/2 7/5/2
f 8/7/3 6/21/3 5/8/3
f 6/10/4 2/22/4 1/11/4
f 7/13/5 5/23/5 1/14/5
f 4/16/6 2/24/6 6/17/6
